# xmcd CD database file
#
# Track frame offsets:
#	150
#	19915
#	36139
#	46888
#	71462
#	91881
#	106207
#	122736
#	139273
#	158819
#	174029
#	175529
#
# Disc length: 2639 seconds
#
# Revision: 1
# Processed by: cddbd v1.5.1PL0 Copyright (c) Steve Scherf et al.
# Submitted via: CDex 1.51
#
DISCID=8e0a4d0c
DTITLE=Sarah Wagner and The Pop-Adelphics - Twang Trip
DYEAR=2001
DGENRE=Country
TTITLE0=Get Your Backbone Up
TTITLE1=The Long Haul
TTITLE2=The Little House
TTITLE3=Typical Day
TTITLE4=Soembody's Husband
TTITLE5=Percentages
TTITLE6=Stickin' To You
TTITLE7=Same Circumstances
TTITLE8=Trading On Hearts
TTITLE9=Albert Finney
TTITLE10=Silence
TTITLE11=Bonus Track
EXTD=\n YEAR: 2001
EXTT0=
EXTT1=
EXTT2=
EXTT3=
EXTT4=
EXTT5=
EXTT6=
EXTT7=
EXTT8=
EXTT9=
EXTT10=
EXTT11=
PLAYORDER=
